
<svg aria-hidden="true" style="position: absolute; width: 0; height: 0; overflow: hidden;" version="1.1" xmlns="http://www.w3.org/2000/svg" xmlns:xlink="http://www.w3.org/1999/xlink">
  <defs>
    <symbol id="icon-at-sign" viewBox="0 0 24 24">
      <title>at-sign</title>
      <path d="M12 1c-2.9 0-5.7 1.1-7.8 3.2s-3.2 4.9-3.2 7.8c0 6.1 4.9 11 11 11 2.4 0 4.8-0.8 6.7-2.3 0.4-0.3 0.5-1 0.2-1.4s-1-0.5-1.4-0.2c-1.6 1.2-3.5 1.9-5.5 1.9-5 0-9-4-9-9 0-2.4 0.9-4.7 2.6-6.4s4-2.6 6.4-2.6c5 0 9 4 9 9v1c0 1.1-0.9 2-2 2s-2-0.9-2-2v-5c0-0.6-0.4-1-1-1s-1 0.4-1 1v0c-0.8-0.6-1.9-1-3-1-2.8 0-5 2.2-5 5s2.2 5 5 5c1.5 0 2.8-0.7 3.7-1.7 0.7 1 1.9 1.7 3.3 1.7 2.2 0 4-1.8 4-4v-1c0-6.1-4.9-11-11-11zM12 15c-1.7 0-3-1.3-3-3s1.3-3 3-3 3 1.3 3 3-1.3 3-3 3z"></path>
    </symbol>
    <symbol id="icon-calendar" viewBox="0 0 24 24">
      <title>calendar</title>
      <path d="M19 3h-2v-1c0-0.6-0.4-1-1-1s-1 0.4-1 1v1h-6v-1c0-0.6-0.4-1-1-1s-1 0.4-1 1v1h-2c-1.7 0-3 1.3-3 3v14c0 1.7 1.3 3 3 3h14c1.7 0 3-1.3 3-3v-14c0-1.7-1.3-3-3-3zM5 5h2v1c0 0.6 0.4 1 1 1s1-0.4 1-1v-1h6v1c0 0.6 0.4 1 1 1s1-0.4 1-1v-1h2c0.6 0 1 0.4 1 1v3h-16v-3c0-0.6 0.4-1 1-1zM19 21h-14c-0.6 0-1-0.4-1-1v-9h16v9c0 0.6-0.4 1-1 1z"></path>
    </symbol>
    <symbol id="icon-check" viewBox="0 0 24 24">
      <title>check</title>
      <path d="M20.7 5.3c-0.4-0.4-1-0.4-1.4 0l-10.3 10.3-4.3-4.3c-0.4-0.4-1-0.4-1.4 0s-0.4 1 0 1.4l5 5c0.2 0.2 0.4 0.3 0.7 0.3s0.5-0.1 0.7-0.3l11-11c0.4-0.4 0.4-1 0-1.4z"></path>
    </symbol>
    <symbol id="icon-chevron-down" viewBox="0 0 24 24">
      <title>chevron-down</title>
      <path d="M18.7 8.3c-0.4-0.4-1-0.4-1.4 0l-5.3 5.3-5.3-5.3c-0.4-0.4-1-0.4-1.4 0s-0.4 1 0 1.4l6 6c0.2 0.2 0.5 0.3 0.7 0.3s0.5-0.1 0.7-0.3l6-6c0.4-0.4 0.4-1 0-1.4z"></path>
    </symbol>
    <symbol id="icon-chevron-left" viewBox="0 0 24 24">
      <title>chevron-left</title>
      <path d="M10.4 12l5.3-5.3c0.4-0.4 0.4-1 0-1.4s-1-0.4-1.4 0l-6 6c-0.4 0.4-0.4 1 0 1.4l6 6c0.2 0.2 0.5 0.3 0.7 0.3s0.5-0.1 0.7-0.3c0.4-0.4 0.4-1 0-1.4l-5.3-5.3z"></path>
    </symbol>
    <symbol id="icon-chevron-right" viewBox="0 0 24 24">
      <title>chevron-right</title>
      <path d="M15.7 11.3l-6-6c-0.4-0.4-1-0.4-1.4 0s-0.4 1 0 1.4l5.3 5.3-5.3 5.3c-0.4 0.4-0.4 1 0 1.4 0.2 0.2 0.4 0.3 0.7 0.3s0.5-0.1 0.7-0.3l6-6c0.4-0.4 0.4-1 0-1.4z"></path>
    </symbol>
    <symbol id="icon-chevron-up" viewBox="0 0 24 24">
      <title>chevron-up</title>
      <path d="M18.7 14.3l-6-6c-0.4-0.4-1-0.4-1.4 0l-6 6c-0.4 0.4-0.4 1 0 1.4s1 0.4 1.4 0l5.3-5.3 5.3 5.3c0.2 0.2 0.5 0.3 0.7 0.3s0.5-0.1 0.7-0.3c0.4-0.4 0.4-1 0-1.4z"></path>
    </symbol>
    <symbol id="icon-chevrons-down" viewBox="0 0 24 24">
      <title>chevrons-down</title>
      <path d="M16.3 12.3l-4.3 4.3-4.3-4.3c-0.4-0.4-1-0.4-1.4 0s-0.4 1 0 1.4l5 5c0.2 0.2 0.5 0.3 0.7 0.3s0.5-0.1 0.7-0.3l5-5c0.4-0.4 0.4-1 0-1.4s-1-0.4-1.4 0z"></path>
      <path d="M11.3 11.7c0.2 0.2 0.5 0.3 0.7 0.3s0.5-0.1 0.7-0.3l5-5c0.4-0.4 0.4-1 0-1.4s-1-0.4-1.4 0l-4.3 4.3-4.3-4.3c-0.4-0.4-1-0.4-1.4 0s-0.4 1 0 1.4l5 5z"></path>
    </symbol>
    <symbol id="icon-chevrons-up" viewBox="0 0 24 24">
      <title>chevrons-up</title>
      <path d="M7.7 11.7l4.3-4.3 4.3 4.3c0.2 0.2 0.5 0.3 0.7 0.3s0.5-0.1 0.7-0.3c0.4-0.4 0.4-1 0-1.4l-5-5c-0.4-0.4-1-0.4-1.4 0l-5 5c-0.4 0.4-0.4 1 0 1.4s1 0.4 1.4 0z"></path>
      <path d="M12.7 12.3c-0.4-0.4-1-0.4-1.4 0l-5 5c-0.4 0.4-0.4 1 0 1.4s1 0.4 1.4 0l4.3-4.3 4.3 4.3c0.2 0.2 0.5 0.3 0.7 0.3s0.5-0.1 0.7-0.3c0.4-0.4 0.4-1 0-1.4l-5-5z"></path>
    </symbol>
    <symbol id="icon-card" viewBox="0 0 24 24">
      <title>card</title>
      <path d="M21 3h-18c-1.7 0-3 1.3-3 3v12c0 1.7 1.3 3 3 3h18c1.7 0 3-1.3 3-3v-12c0-1.7-1.3-3-3-3zM3 5h18c0.6 0 1 0.4 1 1v3h-20v-3c0-0.6 0.4-1 1-1zM21 19h-18c-0.6 0-1-0.4-1-1v-7h20v7c0 0.6-0.4 1-1 1z"></path>
    </symbol>
    <symbol id="icon-help-circle" viewBox="0 0 24 24">
      <title>help-circle</title>
      <path d="M12 1c-6.1 0-11 4.9-11 11s4.9 11 11 11 11-4.9 11-11-4.9-11-11-11zM12 21c-5 0-9-4-9-9s4-9 9-9c5 0 9 4 9 9s-4 9-9 9z"></path>
      <path d="M13.2 6.2c-2.1-0.7-4.4 0.4-5.1 2.4-0.1 0.6 0.1 1.2 0.7 1.3 0.5 0.2 1.1-0.1 1.3-0.6 0.4-1 1.5-1.6 2.6-1.2 0.8 0.3 1.3 1 1.3 1.9 0 1-1.7 1.8-2.3 2.1-0.5 0.2-0.8 0.7-0.6 1.3 0.1 0.4 0.5 0.7 0.9 0.7 0.1 0 0.2 0 0.3-0.1 0.4-0.1 3.7-1.3 3.7-3.9-0.1-1.8-1.2-3.3-2.8-3.9z"></path>
      <path d="M11.3 16.3c-0.2 0.2-0.3 0.4-0.3 0.7s0.1 0.5 0.3 0.7c0.2 0.2 0.4 0.3 0.7 0.3s0.5-0.1 0.7-0.3c0.2-0.2 0.3-0.5 0.3-0.7s-0.1-0.5-0.3-0.7c-0.4-0.4-1-0.4-1.4 0z"></path>
    </symbol>
    <symbol id="icon-home" viewBox="0 0 24 24">
      <title>home</title>
      <path d="M21.6 8.2l-9-7c-0.4-0.3-0.9-0.3-1.2 0l-9 7c-0.3 0.2-0.4 0.5-0.4 0.8v11c0 1.7 1.3 3 3 3h14c1.7 0 3-1.3 3-3v-11c0-0.3-0.1-0.6-0.4-0.8zM14 21h-4v-8h4v8zM20 20c0 0.6-0.4 1-1 1h-3v-9c0-0.6-0.4-1-1-1h-6c-0.6 0-1 0.4-1 1v9h-3c-0.6 0-1-0.4-1-1v-10.5l8-6.2 8 6.2v10.5z"></path>
    </symbol>
    <symbol id="icon-info" viewBox="0 0 24 24">
      <title>info</title>
      <path d="M12 1c-6.1 0-11 4.9-11 11s4.9 11 11 11 11-4.9 11-11-4.9-11-11-11zM12 21c-5 0-9-4-9-9s4-9 9-9c5 0 9 4 9 9s-4 9-9 9z"></path>
      <path d="M12 11c-0.6 0-1 0.4-1 1v4c0 0.6 0.4 1 1 1s1-0.4 1-1v-4c0-0.6-0.4-1-1-1z"></path>
      <path d="M11.3 7.3c-0.2 0.2-0.3 0.4-0.3 0.7s0.1 0.5 0.3 0.7c0.2 0.2 0.4 0.3 0.7 0.3s0.5-0.1 0.7-0.3c0.2-0.2 0.3-0.4 0.3-0.7s-0.1-0.5-0.3-0.7c-0.4-0.4-1-0.4-1.4 0z"></path>
    </symbol>
    <symbol id="icon-lock" viewBox="0 0 24 24">
      <title>lock</title>
      <path d="M19 10h-1v-3c0-3.3-2.7-6-6-6s-6 2.7-6 6v3h-1c-1.7 0-3 1.3-3 3v7c0 1.7 1.3 3 3 3h14c1.7 0 3-1.3 3-3v-7c0-1.7-1.3-3-3-3zM8 7c0-2.2 1.8-4 4-4s4 1.8 4 4v3h-8v-3zM20 20c0 0.6-0.4 1-1 1h-14c-0.6 0-1-0.4-1-1v-7c0-0.6 0.4-1 1-1h14c0.6 0 1 0.4 1 1v7z"></path>
    </symbol>
    <symbol id="icon-log-in" viewBox="0 0 24 24">
      <title>log-in</title>
      <path d="M19 2h-4c-0.6 0-1 0.4-1 1s0.4 1 1 1h4c0.6 0 1 0.4 1 1v14c0 0.6-0.4 1-1 1h-4c-0.6 0-1 0.4-1 1s0.4 1 1 1h4c1.7 0 3-1.3 3-3v-14c0-1.7-1.3-3-3-3z"></path>
      <path d="M15.9 12.4c0.1-0.2 0.1-0.5 0-0.8-0.1-0.1-0.1-0.2-0.2-0.3l-5-5c-0.4-0.4-1-0.4-1.4 0s-0.4 1 0 1.4l3.3 3.3h-9.6c-0.6 0-1 0.4-1 1s0.4 1 1 1h9.6l-3.3 3.3c-0.4 0.4-0.4 1 0 1.4 0.2 0.2 0.4 0.3 0.7 0.3s0.5-0.1 0.7-0.3l5-5c0.1-0.1 0.2-0.2 0.2-0.3z"></path>
    </symbol>
    <symbol id="icon-log-out" viewBox="0 0 24 24">
      <title>log-out</title>
      <path d="M9 20h-4c-0.6 0-1-0.4-1-1v-14c0-0.6 0.4-1 1-1h4c0.6 0 1-0.4 1-1s-0.4-1-1-1h-4c-1.7 0-3 1.3-3 3v14c0 1.7 1.3 3 3 3h4c0.6 0 1-0.4 1-1s-0.4-1-1-1z"></path>
      <path d="M21.9 12.4c0.1-0.2 0.1-0.5 0-0.8-0.1-0.1-0.1-0.2-0.2-0.3l-5-5c-0.4-0.4-1-0.4-1.4 0s-0.4 1 0 1.4l3.3 3.3h-9.6c-0.6 0-1 0.4-1 1s0.4 1 1 1h9.6l-3.3 3.3c-0.4 0.4-0.4 1 0 1.4 0.2 0.2 0.5 0.3 0.7 0.3s0.5-0.1 0.7-0.3l5-5c0.1-0.1 0.2-0.2 0.2-0.3z"></path>
    </symbol>
    <symbol id="icon-menu" viewBox="0 0 24 24">
      <title>menu</title>
      <path d="M21 11h-18c-0.6 0-1 0.4-1 1s0.4 1 1 1h18c0.6 0 1-0.4 1-1s-0.4-1-1-1z"></path>
      <path d="M3 7h18c0.6 0 1-0.4 1-1s-0.4-1-1-1h-18c-0.6 0-1 0.4-1 1s0.4 1 1 1z"></path>
      <path d="M21 17h-18c-0.6 0-1 0.4-1 1s0.4 1 1 1h18c0.6 0 1-0.4 1-1s-0.4-1-1-1z"></path>
    </symbol>
    <symbol id="icon-printer" viewBox="0 0 24 24">
      <title>printer</title>
      <path d="M20 8h-1v-6c0-0.6-0.4-1-1-1h-12c-0.6 0-1 0.4-1 1v6h-1c-1.7 0-3 1.3-3 3v5c0 1.7 1.3 3 3 3h1v3c0 0.6 0.4 1 1 1h12c0.6 0 1-0.4 1-1v-3h1c1.7 0 3-1.3 3-3v-5c0-1.7-1.3-3-3-3zM7 3h10v5h-10v-5zM17 21h-10v-6h10v6zM21 16c0 0.6-0.4 1-1 1h-1v-3c0-0.6-0.4-1-1-1h-12c-0.6 0-1 0.4-1 1v3h-1c-0.6 0-1-0.4-1-1v-5c0-0.6 0.4-1 1-1h16c0.6 0 1 0.4 1 1v5z"></path>
    </symbol>
    <symbol id="icon-save" viewBox="0 0 24 24">
      <title>save</title>
      <path d="M21.7 7.3l-5-5c-0.2-0.2-0.4-0.3-0.7-0.3h-11c-1.7 0-3 1.3-3 3v14c0 1.7 1.3 3 3 3h14c1.7 0 3-1.3 3-3v-11c0-0.3-0.1-0.5-0.3-0.7zM16 20h-8v-6h8v6zM20 19c0 0.6-0.4 1-1 1h-1v-7c0-0.6-0.4-1-1-1h-10c-0.6 0-1 0.4-1 1v7h-1c-0.6 0-1-0.4-1-1v-14c0-0.6 0.4-1 1-1h1v4c0 0.6 0.4 1 1 1h8c0.6 0 1-0.4 1-1s-0.4-1-1-1h-7v-3h7.6l4.4 4.4v10.6z"></path>
    </symbol>
    <symbol id="icon-user" viewBox="0 0 24 24">
      <title>user</title>
      <path d="M16 14h-8c-2.8 0-5 2.2-5 5v2c0 0.6 0.4 1 1 1s1-0.4 1-1v-2c0-1.7 1.3-3 3-3h8c1.7 0 3 1.3 3 3v2c0 0.6 0.4 1 1 1s1-0.4 1-1v-2c0-2.8-2.2-5-5-5z"></path>
      <path d="M12 12c2.8 0 5-2.2 5-5s-2.2-5-5-5-5 2.2-5 5 2.2 5 5 5zM12 4c1.7 0 3 1.3 3 3s-1.3 3-3 3-3-1.3-3-3 1.3-3 3-3z"></path>
    </symbol>
    <symbol id="icon-user-plus" viewBox="0 0 24 24">
      <title>user-plus</title>
      <path d="M12 14h-7c-2.8 0-5 2.2-5 5v2c0 0.6 0.4 1 1 1s1-0.4 1-1v-2c0-1.7 1.3-3 3-3h7c1.7 0 3 1.3 3 3v2c0 0.6 0.4 1 1 1s1-0.4 1-1v-2c0-2.8-2.2-5-5-5z"></path>
      <path d="M8.5 12c2.8 0 5-2.2 5-5s-2.2-5-5-5-5 2.2-5 5 2.2 5 5 5zM8.5 4c1.7 0 3 1.3 3 3s-1.3 3-3 3-3-1.3-3-3 1.3-3 3-3z"></path>
      <path d="M23 10h-2v-2c0-0.6-0.4-1-1-1s-1 0.4-1 1v2h-2c-0.6 0-1 0.4-1 1s0.4 1 1 1h2v2c0 0.6 0.4 1 1 1s1-0.4 1-1v-2h2c0.6 0 1-0.4 1-1s-0.4-1-1-1z"></path>
    </symbol>
  </defs>
</svg>
